<svg id="Layer_1" data-name="Layer 1" xmlns="http://www.w3.org/2000/svg" viewBox="0 0 400.99 150.12"><defs><style>.cls-1,.cls-3{fill:#c69c6d;}.cls-2{fill:#a67c52;}.cls-3{font-size:135.93px;font-family:MyriadPro-Bold, Myriad Pro;font-weight:700;}.cls-4,.cls-5,.cls-6{fill:#8c6239;}.cls-4,.cls-5{font-family:MyriadPro-Regular, Myriad Pro;font-weight:400;}.cls-5{letter-spacing:-0.01em;}</style></defs><title>logo</title><path class="cls-1" d="M7074.19,7215.08l-66.85-22.61a1.9,1.9,0,0,1-1.26-1.44l-13.84-69.2a1.9,1.9,0,0,1,.61-1.81l53-46.58a1.9,1.9,0,0,1,1.87-.38l66.85,22.62a1.89,1.89,0,0,1,1.26,1.43l13.84,69.2a1.9,1.9,0,0,1-.61,1.81l-53,46.59A1.9,1.9,0,0,1,7074.19,7215.08Z" transform="translate(-6988.85 -7069.7)"/><path class="cls-2" d="M7072.59,7219.82l-51.36-18-12.84-4.51-1.61-.57-.83-.29a6.09,6.09,0,0,1-3.72-3.7,7.08,7.08,0,0,1-.34-1.43l-.32-1.67-1.26-6.68-5-26.75-5-26.75-1.26-6.69,0-.2,0-.19,0-.29a5.72,5.72,0,0,1,0-1.17,5.35,5.35,0,0,1,.76-2.2,5.88,5.88,0,0,1,1.22-1.36l.65-.56,2.58-2.21,10.32-8.87,20.65-17.73,10.33-8.87,5.16-4.43,2.58-2.21.64-.56.33-.28a5.73,5.73,0,0,1,.65-.49,4.42,4.42,0,0,1,3.78-.44l51.36,18,12.84,4.51,1.6.56.82.29a3.54,3.54,0,0,1,1.34.84,3.64,3.64,0,0,1,.85,1.34,7.74,7.74,0,0,1,.24,1.07l.32,1.67,1.25,6.69,5,26.75,5,26.74,1.26,6.69a3.31,3.31,0,0,1,.08,1.1,2.6,2.6,0,0,1-.4,1.15,3.26,3.26,0,0,1-.74.8l-.65.56-2.58,2.21-10.32,8.87-20.65,17.73-10.33,8.86-5.16,4.44-2.58,2.21c-.44.36-.84.76-1.31,1.09a1.9,1.9,0,0,1-1.64.18Zm1.6-4.74a1.89,1.89,0,0,0,1.62-.21c.45-.34.85-.75,1.28-1.12l2.53-2.27,5.06-4.55,10.11-9.1,20.24-18.2,10.12-9.1,2.53-2.28a8.6,8.6,0,0,0,1-1,1,1,0,0,0,.14-.45,1.54,1.54,0,0,0-.07-.58l-1.41-6.66-5.65-26.62-5.64-26.63-1.41-6.65a15.92,15.92,0,0,0-.55-2.34l-.09,0-.79-.26-1.62-.53-12.94-4.21-51.76-16.85a.6.6,0,0,0,.52,0c.2-.16-.15.14-.34.31l-.63.57-2.53,2.27-5.06,4.55-10.12,9.1-20.23,18.2-10.12,9.1-2.53,2.28c-.35.29-1.14,1.09-.56.44a1.53,1.53,0,0,0,.21-.6,1.71,1.71,0,0,0,0-.32v-.08c0-.05,0,0,0,0l0,.21,1.41,6.65,5.65,26.63,5.64,26.62,1.41,6.66.35,1.66c0,.21.2.82,0,.23a2.46,2.46,0,0,0-.54-.85,2.27,2.27,0,0,0-.85-.53l.78.25,1.62.53,12.94,4.21,51.76,16.85Z" transform="translate(-6988.85 -7069.7)"/><text class="cls-3" transform="translate(161.62 113.78)">3<tspan class="cls-4" x="75.44" y="0">i</tspan><tspan class="cls-5" x="107.25" y="0">v</tspan><tspan class="cls-4" x="171.27" y="0">e</tspan></text><path class="cls-6" d="M53.2,57.7H70.75a0,0,0,0,1,0,0V77.41a0,0,0,0,1,0,0H51a0,0,0,0,1,0,0V59.86A2.16,2.16,0,0,1,53.2,57.7Z"/><path class="cls-6" d="M73.47,57.7H90.73a2.46,2.46,0,0,1,2.46,2.46V77.41a0,0,0,0,1,0,0H73.47a0,0,0,0,1,0,0V57.7A0,0,0,0,1,73.47,57.7Z"/><path class="cls-6" d="M51,80.64H70.75a0,0,0,0,1,0,0v19.71a0,0,0,0,1,0,0H53.2A2.16,2.16,0,0,1,51,98.19V80.64A0,0,0,0,1,51,80.64Z"/><path class="cls-6" d="M73.47,80.64H93.18a0,0,0,0,1,0,0V98.19A2.16,2.16,0,0,1,91,100.35H73.47a0,0,0,0,1,0,0V80.64A0,0,0,0,1,73.47,80.64Z"/></svg>